<svg width="231" height="70" xmlns="http://www.w3.org/2000/svg"><g fill="none" fill-rule="evenodd"><rect fill="#FFF" width="231" height="70" rx="10"/><path d="M55.7514695 14H26.5204242C15.9531517 16.584 15.72766 25.584 15.72766 25.584V56h11.2437475V28.308c0-2.354 2.2472077-2.77 2.2472077-2.77h26.5328543V14zM33.5353998 30.0073786s-2.1886922-.2214575-2.1886922 1.7621146v8.8105727H45.78795v2.6441264s.0431362 1.3211086-1.3128402 1.3211086H31.3467076V56h15.7540826s9.5405974-1.4967473 9.6268698-11.4546991V30.0073786H33.5353998z" fill="#4385F4"/><g fill-rule="nonzero" fill="#4385F4"><path d="M88.6031354 32.2554456c-.4558246.3118812-.7927383.540594-1.0305598.6861386-.8521937.540594-1.6647504.9564356-2.4178518 1.2891089-1.0900151.4574258-2.0611195.6861386-2.9331316.6861386-2.992587 0-5.469894-.9356435-7.4715582-2.8277228-2.0016642-1.8920792-2.992587-4.2623763-2.992587-7.1316832 0-2.7653465.8918306-5.1564356 2.6953101-7.1940594 1.8034796-2.0376237 3.9835099-3.0356435 6.5599093-3.0356435 1.0701966 0 2.2196672.1871287 3.4087746.5821782 1.5458396.4990099 2.7944024 1.2475248 3.7853253 2.2247525l-1.7242059 1.9544554c-.7332828-.7277228-1.6845687-1.2683168-2.7944023-1.60099-.8323752-.249505-1.7440243-.3742575-2.7547656-.3742575-1.8034795 0-3.3295007.7485148-4.5384266 2.2247525-1.2089258 1.4970297-1.823298 3.2643564-1.823298 5.3435643 0 2.0584158.693646 3.7425743 2.080938 5.0940594 1.387292 1.3514852 3.1511346 2.0376238 5.2915279 2.0376238.8918306 0 1.8034796-.2910892 2.7349471-.8524753.7729199-.6029703 1.1692889-.8940593 1.1891074-.9148514v-4.2623762h-5.7869894l.8323752-2.6613862h7.6895613v8.7326733zM106.0830143 27.0574257c0 2.0584158-.7134644 3.8465347-2.1403933 5.3435644-1.4269289 1.4970297-3.1907715 2.2663367-5.291528 2.2663367-1.9422088 0-3.6465961-.7485149-5.1131619-2.2247525-1.4665658-1.4762376-2.1800302-3.2643565-2.1800302-5.3643565 0-2.0792079.693646-3.8673267 2.0809379-5.4059406 1.387292-1.5386138 3.0916793-2.2871287 5.0933435-2.2871287 2.2196672 0 4.0231467.7277228 5.4302571 2.2039604 1.4071105 1.4346535 2.1205749 3.2643565 2.1205749 5.4683168zm-2.7151286.0415842c0-1.3930693-.4558245-2.5782178-1.3674735-3.5346535-.911649-.9772277-2.041301-1.4554455-3.3889561-1.4554455-1.2683812 0-2.338578.4990099-3.2304085 1.4970297-.8918305.9980198-1.3278367 2.1415841-1.3278367 3.430693 0 1.3514853.4558246 2.4950496 1.3476551 3.4514853.8918306.9564355 2.0016642 1.4554454 3.3493193 1.4554454 1.2485627 0 2.3187595-.4782178 3.2304084-1.4346535.9314675-.9564355 1.387292-2.1 1.387292-3.4099009zM123.3250719 27.0574257c0 2.0584158-.7134645 3.8465347-2.1403934 5.3435644-1.4269289 1.4970297-3.1907716 2.2663367-5.291528 2.2663367-1.9422088 0-3.6465961-.7485149-5.1131618-2.2247525-1.4665659-1.4762376-2.1800304-3.2643565-2.1800304-5.3643565 0-2.0792079.693646-3.8673267 2.080938-5.4059406 1.387292-1.5386138 3.0916793-2.2871287 5.0933434-2.2871287 2.2196672 0 4.0231468.7277228 5.4302572 2.2039604 1.4071105 1.4346535 2.120575 3.2643565 2.120575 5.4683168zm-2.7151287.0415842c0-1.3930693-.4558245-2.5782178-1.3674735-3.5346535-.911649-.9772277-2.0413011-1.4554455-3.3889562-1.4554455-1.2683812 0-2.3385778.4990099-3.2304084 1.4970297-.8918306.9980198-1.3278366 2.1415841-1.3278366 3.430693 0 1.3514853.4558245 2.4950496 1.3476551 3.4514853.8918305.9564355 2.001664 1.4554454 3.3493191 1.4554454 1.2485629 0 2.3187595-.4782178 3.2304086-1.4346535.9314674-.9564355 1.3872919-2.1 1.3872919-3.4099009zM139.2789296 34.2514851l-2.4971256.3950496v-2.4742575c-.1783661.2079208-.3567321.4158417-.5350983.6237624-.4756429.4574258-1.0107413.8316832-1.5854765 1.1227723-.8323753.3950495-1.7440243.6029703-2.7151287.6029703-1.9422087 0-3.6069591-.7277228-4.9546142-2.2039604-1.3476551-1.4762376-2.0214825-3.2227722-2.0214825-5.2603961 0-2.1.6738274-3.9089108 2.001664-5.4059405 1.3278366-1.4970298 2.9529502-2.2455446 4.8951589-2.2455446 1.1098336 0 2.080938.1871287 2.8934948.5613861.5747351.270297 1.0701966.6237624 1.4863842 1.060396.1387292.1871288.2774584.3950496.4161875.5821783v-6.4871287l2.6556733-.3950495-.0396369 19.5237623zm-2.3385779-7.0069307c0-1.4554455-.475643-2.6821782-1.4467474-3.680198-.9711043-1.0188118-2.0611194-1.5178218-3.3096823-1.5178218-1.3872919 0-2.4971255.4782179-3.3493191 1.4346535-.7927383.9148515-1.208926 2.0376238-1.208926 3.3475248 0 1.4762376.4161877 2.7029703 1.2485628 3.659406.8323753.9564355 1.8827534 1.4346533 3.1709531 1.4346533 1.2683813 0 2.3782149-.4366336 3.3691377-1.330693 1.0107414-.9148514 1.5260212-2.0376238 1.5260212-3.3475248zM153.2905786 17.8257426h-7.4319213v5.1772277h5.7671709v2.6613861h-5.7671709v8.5663367l-2.8934947.4366337V15.1435644h9.7506808zM159.2559341 16.3079208l-1.7836611 2.3079208-1.7043873-2.3079208 1.8034796-2.2871287 1.6845688 2.2871287zm-.5350983 17.9435643l-2.6556732.3742574v-14.450495l2.6556732-.4158416v14.4920792zM170.7110022 19.6138614l-1.2485628 2.9524752c-.1387291-.020792-.3170953-.0415841-.4954614-.0415841-.25764 0-.5152798.020792-.7729198.0623762-.25764.0415842-.5350983.1455446-.8323751.2910891-.5549168.249505-1.0305598.790099-1.4467474 1.6009901-.4558245.9148515-.693646 1.9128713-.693646 2.9732674v6.7782178l-2.6556733.4366337V20.1752475l2.4574887-.4574257v3.0148515c.3170953-.519802.6540091-1.039604.9711044-1.580198.4558245-.5405941.9909228-.9356436 1.5854766-1.1643565.3170953-.1247525.8918304-.2287129 1.7638426-.3118812.8323752-.0623762 1.3080182-.1039604 1.3674735-.0623762zM190.489822 34.2514851l-2.655673.3950496v-9.9178218c0-.9148515-.198185-1.580198-.594554-1.9960396-.396369-.4158416-.990923-.6237624-1.763842-.6237624-.931468 0-1.644932.3950495-2.120575 1.1851485-.317096.540594-.495462 1.1227723-.495462 1.7049505v9.2316832l-2.655673.4990098v-9.9386138c0-.8732673-.198184-1.5386139-.574735-1.9960396-.396369-.4574257-.911649-.6861386-1.585477-.6861386h-.25764c-.931467 0-1.605295.3950495-2.021482 1.2059406-.317096.6029703-.475643 1.3722772-.475643 2.3079208v8.6079208l-2.754766.4990098V20.1752475l2.477307-.4366336v1.850495c.277459-.4366337.554917-.790099.812557-1.039604.713465-.6861386 1.54584-1.0188118 2.477307-1.0188118 1.050378 0 1.823298.1663366 2.358397.519802.455824.291089.89183.8732673 1.327836 1.7049504.911649-1.4762376 2.199849-2.2247524 3.904236-2.2247524 1.625114 0 2.83404.519802 3.626778 1.580198.654009.8732673.971104 2.1623762.971104 3.8465346v9.2940594zM202.618718 29.8643564c0 1.3306932-.455824 2.4326733-1.367474 3.2851486-.911649.8732672-2.06112 1.2891089-3.448411 1.2891089-1.050378 0-1.981846-.249505-2.83404-.7485149-.852194-.4990098-1.486384-1.0603961-1.902571-1.7257426l1.862935-1.7049504c.138729.2079208.257639.3742573.37655.4990098.693646.7277228 1.526021 1.1019803 2.497126 1.1019803.673827 0 1.208925-.1871287 1.585476-.5405941.39637-.3534653.574736-.8524752.574736-1.4970298 0-.7277226-.455825-1.2267326-1.367474-1.4970296-1.803479-.5613862-2.774584-.8732673-2.913313-.9356436-.832375-.4366336-1.426929-.8940594-1.80348-1.4138614-.416188-.6029703-.63419-1.3930693-.63419-2.4118812 0-1.2475247.455824-2.2871287 1.347655-3.1188118.89183-.8316832 1.962027-1.2267327 3.190772-1.2267327.931467 0 1.803479.2079208 2.596217.6445544.792738.4366337 1.367474.8940594 1.704387 1.4346535l-1.585477 1.7673267c-.297276-.291089-.554916-.519802-.772919-.6653465-.63419-.4574257-1.248563-.6861386-1.823298-.6861386-.554917 0-1.010741.1247525-1.367474.3742574-.416187.3118812-.63419.769307-.63419 1.3722772 0 .5821783.198185 1.0188119.614372 1.289109.356732.2287128 1.109834.4782178 2.298941.7485148 1.189107.2910891 2.100757.7900991 2.754765 1.4970298.733284.7485147 1.050379 1.6841583 1.050379 2.8693068z"/></g><path d="M74.6254468 52.916c-.0560003-.0560003-.084-.1239996-.084-.204V46.1h-2.22c-.0800004 0-.1479997-.0279997-.204-.084-.0560003-.0560003-.084-.1279996-.084-.216v-.9c0-.0880004.0259997-.1599997.078-.216s.1219996-.084.21-.084h6.132c.0880004 0 .1599997.0279997.216.084s.084.1279996.084.216v.9c0 .0880004-.0279997.1599997-.084.216s-.1279996.084-.216.084h-2.208v6.612c0 .0800004-.0259997.1479997-.078.204-.0520003.0560003-.1219996.084-.21.084h-1.128c-.0800004 0-.1479997-.0279997-.204-.084zm5.784-.516c-.5120026-.4800024-.7879998-1.1439958-.828-1.992l-.012-.528.012-.528c.0400002-.8400042.3199974-1.5019976.84-1.986.5200026-.4840024 1.2439954-.726 2.172-.726.9200046 0 1.6399974.2419976 2.16.726.5200026.4840024.7999998 1.1459958.84 1.986.008.0960005.012.2719987.012.528 0 .2560013-.004.4319995-.012.528-.0400002.8480042-.3159974 1.5119976-.828 1.992-.5120026.4800024-1.2359953.72-2.172.72-.9440047 0-1.6719974-.2399976-2.184-.72zm3.162-.888c.2280011-.2640013.3499999-.6519974.366-1.164.008-.0800004.012-.2359988.012-.468 0-.2320012-.004-.3879996-.012-.468-.0160001-.5120026-.1399988-.9019987-.372-1.17-.2320012-.2680013-.5559979-.402-.972-.402-.4240021 0-.7519988.1339987-.984.402-.2320012.2680013-.3559999.6579974-.372 1.17l-.012.468.012.468c.0160001.5120026.1399988.8999987.372 1.164.2320012.2640013.5599979.396.984.396.4240021 0 .7499989-.1319987.978-.396zm3.462 3.69c-.0560003-.0520003-.084-.1219996-.084-.21v-7.944c0-.0880004.0279997-.1579997.084-.21s.1239996-.078.204-.078h.96c.0880004 0 .1599997.0279997.216.084s.084.1239996.084.204v.48c.4240021-.592003 1.0599958-.888 1.908-.888.808004 0 1.4279978.2539975 1.86.762.4320022.5080025.6639998 1.1899957.696 2.046.008.0960005.012.239999.012.432s-.004.3359995-.012.432c-.0240001.8400042-.2539978 1.5179974-.69 2.034-.4360022.5160026-1.057996.774-1.866.774-.800004 0-1.4119979-.2839972-1.836-.852v2.724c0 .0880004-.0259997.1579997-.078.21s-.1219996.078-.21.078h-1.044c-.0800004 0-.1479997-.0259997-.204-.078zm4.284-4.962c.008-.0800004.012-.1999992.012-.36s-.004-.2799996-.012-.36c-.0560003-1.0560053-.5119957-1.584-1.368-1.584-.4560023 0-.7959989.1479985-1.02.444-.2240011.2960015-.3439999.6559979-.36 1.08-.008.0960005-.012.247999-.012.456 0 .208001.004.3639995.012.468.0160001.400002.1399988.7399986.372 1.02.2320012.2800014.5679978.42 1.008.42.8560043 0 1.3119997-.5279947 1.368-1.584zm5.172 2.688c-.0480002-.0480002-.072-.1079996-.072-.18l.024-.108 2.88-7.74c.0800004-.200001.223999-.3.432-.3h1.3200002c.208001 0 .351999.099999.432.3l2.88 7.74.024.108c0 .0720004-.026.1319998-.078.18-.052.0480002-.11.072-.174.072h-1.068c-.168001 0-.284-.0759992-.348-.228l-.552-1.452h-3.5520002l-.552 1.452c-.0640003.1520008-.1799992.228-.348.228h-1.068c-.0720004 0-.1319998-.0239998-.18-.072zm2.568-3h2.7120002l-1.356-3.696-1.3560002 3.696zm6.4080002 5.274c-.056-.0520003-.084-.1219996-.084-.21v-7.944c0-.0880004.028-.1579997.084-.21.056-.0520003.123999-.078.204-.078h.96c.088 0 .16.0279997.216.084.056.0560003.084.1239996.084.204v.48c.424002-.592003 1.059996-.888 1.908-.888.808004 0 1.427998.2539975 1.86.762s.664 1.1899957.696 2.046c.008.0960005.012.239999.012.432s-.004.3359995-.012.432c-.024.8400042-.253998 1.5179974-.69 2.034-.436002.5160026-1.057996.774-1.866.774-.800004 0-1.411998-.2839972-1.836-.852v2.724c0 .0880004-.026.1579997-.078.21-.052.0520003-.122.078-.21.078h-1.044c-.080001 0-.148-.0259997-.204-.078zm4.284-4.962c.008-.0800004.012-.1999992.012-.36s-.004-.2799996-.012-.36c-.056-1.0560053-.511996-1.584-1.368-1.584-.456002 0-.795999.1479985-1.02.444-.224001.2960015-.344.6559979-.36 1.08-.008.0960005-.012.247999-.012.456 0 .208001.004.3639995.012.468.016.400002.139999.7399986.372 1.02.232001.2800014.567998.42 1.008.42.856004 0 1.312-.5279947 1.368-1.584zm3.084 4.962c-.056-.0520003-.084-.1219996-.084-.21v-7.944c0-.0880004.028-.1579997.084-.21.056-.0520003.123999-.078.204-.078h.96c.088 0 .16.0279997.216.084.056.0560003.084.1239996.084.204v.48c.424002-.592003 1.059996-.888 1.908-.888.808004 0 1.427998.2539975 1.86.762s.664 1.1899957.696 2.046c.008.0960005.012.239999.012.432s-.004.3359995-.012.432c-.024.8400042-.253998 1.5179974-.69 2.034-.436002.5160026-1.057996.774-1.866.774-.800004 0-1.411998-.2839972-1.836-.852v2.724c0 .0880004-.026.1579997-.078.21-.052.0520003-.122.078-.21.078h-1.044c-.080001 0-.148-.0259997-.204-.078zm4.284-4.962c.008-.0800004.012-.1999992.012-.36s-.004-.2799996-.012-.36c-.056-1.0560053-.511996-1.584-1.368-1.584-.456002 0-.795999.1479985-1.02.444-.224001.2960015-.344.6559979-.36 1.08-.008.0960005-.012.247999-.012.456 0 .208001.004.3639995.012.468.016.400002.139999.7399986.372 1.02.232001.2800014.567998.42 1.008.42.856004 0 1.312-.5279947 1.368-1.584zm5.952 2.676c-.056-.0560003-.084-.1239996-.084-.204V44.9c0-.0880004.026-.1599997.078-.216.052-.0560003.121999-.084.21-.084h2.928c2.360012 0 3.564 1.0879891 3.612 3.264.016.4640023.024.7759992.024.936 0 .1520008-.008.4599977-.024.924-.032 1.1200056-.333997 1.9459973-.906 2.478-.572003.5320027-1.453994.798-2.646.798h-2.988c-.080001 0-.148-.0279997-.204-.084zm3.132-1.308c.664003 0 1.143998-.1479985 1.44-.444.296001-.2960015.452-.7879966.468-1.476.016-.4800024.024-.7799994.024-.9 0-.1280006-.008-.4239977-.024-.888-.016-.6560033-.179999-1.1379985-.492-1.446-.312002-.3080015-.803997-.462-1.476-.462h-1.464v5.616h1.524zm5.646.744c-.524003-.5120026-.802-1.2399953-.834-2.184l-.012-.3c0-1.000005.261997-1.7879971.786-2.364.524002-.5760029 1.249995-.864 2.178-.864.952005 0 1.685997.2879971 2.202.864.516002.5760029.774 1.3439952.774 2.304v.252c0 .0800004-.028.1479997-.084.204-.056.0560003-.128.084-.216.084h-3.984v.096c.016.4480022.137999.8179985.366 1.11.228001.2920015.541998.438.942.438.456002 0 .827998-.1839982 1.116-.552.072-.0880004.128-.1419999.168-.162.04-.0200001.107999-.03.204-.03h1.056c.072 0 .134.0199998.186.06.052.0400002.078.0959996.078.168 0 .192001-.113999.4179987-.342.678-.228001.2600013-.553998.485999-.978.678-.424002.192001-.915997.288-1.476.288-.896005 0-1.605998-.2559974-2.13-.768zm3.438-3.024v-.024c0-.4720024-.117999-.8499986-.354-1.134-.236001-.2840014-.557998-.426-.966-.426s-.727999.1419986-.96.426c-.232001.2840014-.348.6619976-.348 1.134v.024h2.628zm4.86 3.594c-.064001-.0520003-.116-.1259995-.156-.222l-2.256-5.568c-.008-.0240001-.012-.0599998-.012-.108 0-.0720004.026-.1339997.078-.186.052-.0520003.109999-.078.174-.078h.996c.160001 0 .268.0759992.324.228l1.584 4.188 1.584-4.188c.016-.0560003.05-.1079998.102-.156.052-.0480002.121999-.072.21-.072h.996c.072 0 .132.0259997.18.078.048.0520003.072.1139996.072.186 0 .0480002-.004.0839999-.012.108l-2.244 5.568c-.088001.200001-.231999.3-.432.3h-.912c-.120001 0-.212-.0259997-.276-.078zm5.538-.57c-.524003-.5120026-.802-1.2399953-.834-2.184l-.012-.3c0-1.000005.261997-1.7879971.786-2.364.524002-.5760029 1.249995-.864 2.178-.864.952005 0 1.685997.2879971 2.202.864.516002.5760029.774 1.3439952.774 2.304v.252c0 .0800004-.028.1479997-.084.204-.056.0560003-.128.084-.216.084h-3.984v.096c.016.4480022.137999.8179985.366 1.11.228001.2920015.541998.438.942.438.456002 0 .827998-.1839982 1.116-.552.072-.0880004.128-.1419999.168-.162.04-.0200001.107999-.03.204-.03h1.056c.072 0 .134.0199998.186.06.052.0400002.078.0959996.078.168 0 .192001-.113999.4179987-.342.678-.228001.2600013-.553998.485999-.978.678-.424002.192001-.915997.288-1.476.288-.896005 0-1.605998-.2559974-2.13-.768zm3.438-3.024v-.024c0-.4720024-.117999-.8499986-.354-1.134-.236001-.2840014-.557998-.426-.966-.426s-.727999.1419986-.96.426c-.232001.2840014-.348.6619976-.348 1.134v.024h2.628zm3.024 3.588c-.056-.0560003-.084-.1239996-.084-.204v-7.944c0-.0880004.028-.1579997.084-.21.056-.0520003.123999-.078.204-.078h1.008c.088 0 .158.0259997.21.078.052.0520003.078.1219996.078.21v7.944c0 .0800004-.026.1479997-.078.204-.052.0560003-.122.084-.21.084h-1.008c-.080001 0-.148-.0279997-.204-.084zm3.684-.516c-.512003-.4800024-.788-1.1439958-.828-1.992l-.012-.528.012-.528c.04-.8400042.319997-1.5019976.84-1.986.520002-.4840024 1.243995-.726 2.172-.726.920004 0 1.639997.2419976 2.16.726.520002.4840024.8 1.1459958.84 1.986.008.0960005.012.2719987.012.528 0 .2560013-.004.4319995-.012.528-.04.8480042-.315998 1.5119976-.828 1.992-.512003.4800024-1.235996.72-2.172.72-.944005 0-1.671998-.2399976-2.184-.72zm3.162-.888c.228001-.2640013.35-.6519974.366-1.164.008-.0800004.012-.2359988.012-.468 0-.2320012-.004-.3879996-.012-.468-.016-.5120026-.139999-.9019987-.372-1.17-.232001-.2680013-.555998-.402-.972-.402-.424002 0-.751999.1339987-.984.402s-.356.6579974-.372 1.17l-.012.468.012.468c.016.5120026.139999.8999987.372 1.164.232001.2640013.559998.396.984.396s.749999-.1319987.978-.396zm3.462 3.69c-.056-.0520003-.084-.1219996-.084-.21v-7.944c0-.0880004.028-.1579997.084-.21.056-.0520003.123999-.078.204-.078h.96c.088 0 .16.0279997.216.084.056.0560003.084.1239996.084.204v.48c.424002-.592003 1.059996-.888 1.908-.888.808004 0 1.427998.2539975 1.86.762s.664 1.1899957.696 2.046c.008.0960005.012.239999.012.432s-.004.3359995-.012.432c-.024.8400042-.253998 1.5179974-.69 2.034-.436002.5160026-1.057996.774-1.866.774-.800004 0-1.411998-.2839972-1.836-.852v2.724c0 .0880004-.026.1579997-.078.21-.052.0520003-.122.078-.21.078h-1.044c-.080001 0-.148-.0259997-.204-.078zm4.284-4.962c.008-.0800004.012-.1999992.012-.36s-.004-.2799996-.012-.36c-.056-1.0560053-.511996-1.584-1.368-1.584-.456002 0-.795999.1479985-1.02.444-.224001.2960015-.344.6559979-.36 1.08-.008.0960005-.012.247999-.012.456 0 .208001.004.3639995.012.468.016.400002.139999.7399986.372 1.02.232001.2800014.567998.42 1.008.42.856004 0 1.312-.5279947 1.368-1.584zm3.558 2.112c-.524003-.5120026-.802-1.2399953-.834-2.184l-.012-.3c0-1.000005.261997-1.7879971.786-2.364.524002-.5760029 1.249995-.864 2.178-.864.952005 0 1.685997.2879971 2.202.864.516002.5760029.774 1.3439952.774 2.304v.252c0 .0800004-.028.1479997-.084.204-.056.0560003-.128.084-.216.084h-3.984v.096c.016.4480022.137999.8179985.366 1.11.228001.2920015.541998.438.942.438.456002 0 .827998-.1839982 1.116-.552.072-.0880004.128-.1419999.168-.162.04-.0200001.107999-.03.204-.03h1.056c.072 0 .134.0199998.186.06.052.0400002.078.0959996.078.168 0 .192001-.113999.4179987-.342.678-.228001.2600013-.553998.485999-.978.678-.424002.192001-.915997.288-1.476.288-.896005 0-1.605998-.2559974-2.13-.768zm3.438-3.024v-.024c0-.4720024-.117999-.8499986-.354-1.134-.236001-.2840014-.557998-.426-.966-.426s-.727999.1419986-.96.426c-.232001.2840014-.348.6619976-.348 1.134v.024h2.628zm3.012 3.588c-.056-.0560003-.084-.1239996-.084-.204V47.06c0-.0880004.028-.1599997.084-.216.056-.0560003.123999-.084.204-.084h.984c.088 0 .16.0279997.216.084.056.0560003.084.1279996.084.216v.492c.400002-.5280026.975996-.792 1.728-.792h.504c.088 0 .158.0259997.21.078.052.0520003.078.1219996.078.21v.876c0 .0800004-.026.1479997-.078.204-.052.0560003-.122.084-.21.084h-.948c-.376002 0-.671999.1079989-.888.324s-.324.5119981-.324.888v3.288c0 .0800004-.028.1479997-.084.204-.056.0560003-.124.084-.204.084h-1.068c-.080001 0-.148-.0279997-.204-.084z" fill="#4A4A4A"/></g></svg>